<svg viewBox="0 0 138 177" xmlns="http://www.w3.org/2000/svg"><circle cx="961.2" cy="580.7" r="1.9" fill="#aaa" transform="translate(-508.354 -259.685) scale(.6016)"/><circle cx="961.2" cy="580.7" r="1.9" fill="#aaa" transform="translate(-508.354 -280.21) scale(.6016)"/><circle cx="961.2" cy="580.7" r="1.9" fill="#aaa" transform="translate(-508.28 -239.86) scale(.6016)"/><circle cx="961.2" cy="580.7" r="1.9" fill="#aaa" transform="translate(-532.125 -259.685) scale(.6016)"/><circle cx="961.2" cy="580.7" r="1.9" fill="#aaa" transform="translate(-484.133 -259.685) scale(.6016)"/><path d="M896.3 630.4c-13.5-78 44.6-146 99.5-99.4 10 8.5 4.6 8-2.6 5.2-45-18.4-89 38.6-89.6 94.7 0 17-4.5 15.2-7.3-1z" fill="none" stroke-width="3.5" stroke="#7cb6ff" transform="matrix(.9792 0 0 1.0215 -872.663 -523.762)"/><path d="M896.3 630.4c-13.5-78 44.6-146 99.5-99.4 10 8.5 4.6 8-2.6 5.2-45-18.4-89 38.6-89.6 94.7 0 17-4.5 15.2-7.3-1z" fill="none" stroke-width="3.5" stroke="#f9ba4c" transform="matrix(-.9792 0 0 -1.0215 1010.215 700.685)"/><path d="M8 118.4C0 51.8 40.6-18.6 95 18.2 53 5 10.7 56.7 8 118.4z" fill="#7cb6ff"/><path d="M129.5 58.5c8.2 66.6-32.4 137-87 100.3 42.3 13.2 84.4-38.6 87-100.3z" fill="#f9ba4c"/></svg>
